<svg xmlns="http://www.w3.org/2000/svg" viewBox="0 0 326916 333336" shape-rendering="geometricPrecision" text-rendering="geometricPrecision" image-rendering="optimizeQuality" fill-rule="evenodd" clip-rule="evenodd"><path d="M75098 60777c2427-703 4965 694 5669 3122 703 2427-694 4965-3122 5669-10461 3041-18749 7636-24583 13982-5717 6219-9146 14264-10024 24342-218 2526-2443 4397-4969 4180-2526-218-4397-2443-4179-4969 1060-12180 5312-22020 12427-29760 6998-7611 16695-13051 28781-16565zm5835 220300h155846l17193-107669h3c267-1675 1459-3135 3191-3660 38915-11860 56628-34093 59974-56816 1616-10976-91-22118-4353-32280-4292-10233-11146-19443-19792-26484-17877-14559-43518-19865-70069-5721l-40 23c-2199 1248-4994 477-6243-1722-7000-12258-15426-21313-24581-27457-10045-6741-20993-9993-31898-10137-10954-146-21914 2835-31929 8554-9874 5639-18821 13945-25938 24551-1080 1612-3114 2416-5076 1848-28642-8297-54298 1472-70428 18904-6458 6980-11394 15202-14384 23991-2963 8712-3993 17968-2670 27097 3063 21136 18888 41772 52724 53793v2c1563 553 2771 1938 3014 3694l15457 109489zM56784 175573C21015 162075 4097 139095 661 115392c-1534-10588-352-21288 3065-31331 3390-9967 9003-19307 16357-27256 17687-19115 45423-30117 76492-22347 7605-10529 16917-18875 27139-24713C135117 3232 147666-160 160271 7c12652 168 25314 3914 36885 11680 9324 6257 17926 15115 25217 26801 28949-13729 56730-7437 76397 8578 9841 8014 17628 18460 22483 30036 4884 11645 6832 24466 4963 37160-3738 25387-22625 50065-63648 63374l-24245 151826c-357 2255-2307 3863-4521 3860v15H83036c-2425 0-4411-1880-4580-4262L56785 175573zm32439 16425c-367-2506 1368-4836 3874-5202 2506-367 4836 1368 5202 3874l9428 62852c366 2506-1368 4836-3874 5202s-4836-1368-5202-3874l-9428-62852z" fill-rule="nonzero"/></svg>