<svg xmlns="http://www.w3.org/2000/svg" width="64" height="64" shape-rendering="geometricPrecision" text-rendering="geometricPrecision" image-rendering="optimizeQuality" fill-rule="evenodd" clip-rule="evenodd" viewBox="0 0 640 640"><path d="M276.795-.035C379.682 218.4 62.174 219.145 71.789 444.985c6.496 152.743 124.36 208.527 243.629 192.334a201.198 201.198 0 0 1-10.252-7.146c-7.311-5.433-14.48-11.859-21.603-19.37-7.122-7.465-13.04-15.39-17.693-23.717-4.653-8.327-8.433-18.048-11.315-29.15-2.846-11.103-4.287-22.961-4.287-35.623 0-10.063 1.263-19.37 3.815-27.874 2.563-8.504 5.87-15.792 9.968-21.804 4.146-5.952 8.658-11.68 13.642-16.996a321.89 321.89 0 0 1 15-15.035 202.916 202.916 0 0 0 13.642-13.938c4.099-4.63 7.406-9.897 9.969-15.791 2.563-5.847 3.803-12.083 3.803-18.685 0-12.142-3.437-26.6-10.276-43.371l.461.177-.142-.177c9.367 5.327 17.646 10.642 24.957 16.075 7.264 5.445 14.434 11.858 21.556 19.382 7.122 7.453 13.04 15.378 17.693 23.705 4.7 8.327 8.48 18.048 11.315 29.15 2.846 11.103 4.287 22.96 4.287 35.623 0 10.063-1.263 19.37-3.815 27.874-2.563 8.504-5.87 15.791-9.968 21.803a140.698 140.698 0 0 1-13.642 16.997c-4.984 5.385-9.969 10.417-15 15.047-4.985 4.618-9.497 9.307-13.642 13.937-4.099 4.618-7.406 9.886-9.969 15.78-2.563 5.846-3.815 12.095-3.815 18.685 0 9.65 2.126 20.563 6.343 32.74 119.789-20.704 237.582-113.244 241.987-252.557-10.973-93.308-104.104-119.045-54.143-218.046-64.064 3.697-79.453 47.032-79.324 114.238 7.961 86.292-156.215 73.454-70.17-32.091 73.938-90.686 1.217-196.715-88.005-247.196z"/></svg>