<svg xmlns="http://www.w3.org/2000/svg" viewBox="0 0 344176 330058" shape-rendering="geometricPrecision" text-rendering="geometricPrecision" image-rendering="optimizeQuality" fill-rule="evenodd" clip-rule="evenodd"><path d="M198923 43998l-66436 119203 49447 49447 19785-10933-2796-157718zm47228 145647c-875 1089-2161 1837-3626 2004l-58079 32092-17577 17577c-1383 1383-2090 2124-2760 2826-6843 7173-11094 11630-24223 9346-10651-1854-22485-9058-31766-18384-9028-9072-15833-20342-17061-30916-1415-12212 2919-16384 9606-22821 528-509 1074-1033 2434-2393l17960-17960c158-237 338-463 537-678l73372-131647c50-104 103-207 160-309 4627-8253 10159-15222 16347-20142 6122-4868 12901-7755 20130-7985 6778-215 13512-70 19774 64 3064 66 5994 129 10046 129 3269 0 5457-164 7082-286 2914-218 4563-342 6862 484 2707 971 4369 2650 8191 6513 290 293-776-783 2267 2261l41304 41304c2336 2335 3800 3725 5027 4890 8388 7959 8837 8386 10729 24509 1630 13873 2197 27156-1258 39261-3564 12484-11238 23395-26026 31871-102 66-207 128-315 187l-69138 38203zm-9767-7083l-3039-171447c-465 11-931 24-1396 39-4723 150-9342 2188-13675 5634-3116 2478-6068 5667-8805 9410 33 228 52 460 55 697l2994 168855 23867-13188zm7863-171474l2934 165508 62851-34729 136-72c11963-6855 18130-15536 20948-25403 2962-10375 2404-22364 916-35029-1429-12180-1732-12468-7395-17841-1609-1527-3524-3344-5241-5061l-41304-41304c-1351-1351-635-654-2267-2303-2638-2666-3785-3825-4131-3949-45-16-887 47-2374 158-1867 140-4379 328-7894 328-2292 0-6189-84-10259-172-2252-48-4567-98-6920-131zM125680 171868l-14844 14844c-390 390-1531 1489-2604 2522-4315 4153-7111 6845-6316 13716 932 8025 6501 16986 13940 24461 7801 7839 17459 13843 25867 15307 7428 1292 10130-1540 14478-6098 1098-1150 2265-2374 2931-3040l14131-14131-47583-47583zM25580 312515c3156 3156 8272 3156 11428 0s3156-8272 0-11428-8272-3156-11428 0-3156 8272 0 11428zm16249-71247c3156 3156 8272 3156 11428 0s3156-8272 0-11428-8273-3156-11428 0c-3156 3156-3156 8273 0 11428zM2367 265016c3156 3156 8273 3156 11428 0 3156-3156 3156-8273 0-11428-3156-3156-8272-3156-11428 0s-3156 8272 0 11428zm31605 7678c3156 3156 8273 3156 11428 0 3156-3156 3156-8272 0-11428s-8272-3156-11428 0-3156 8273 0 11428zm31605-7678c3156 3156 8272 3156 11428 0s3156-8273 0-11428c-3156-3156-8272-3156-11428 0s-3156 8272 0 11428zm7499-23571c3156 3156 8272 3156 11428 0s3156-8272 0-11428-8272-3156-11428 0-3156 8273 0 11428zm23392 23749c3156 3156 8272 3156 11428 0s3156-8272 0-11428-8272-3156-11428 0-3156 8273 0 11428zm-15713 31426c3156 3156 8273 3156 11428 0 3156-3156 3156-8272 0-11428s-8272-3156-11428 0-3156 8273 0 11428zm-23213 31071c3156 3156 8272 3156 11428 0s3156-8272 0-11428-8273-3156-11428 0c-3156 3156-3156 8273 0 11428zm-7857-31426c3156 3156 8272 3156 11428 0s3156-8272 0-11428-8272-3156-11428 0-3156 8273 0 11428z" fill-rule="nonzero"/></svg>