<svg xmlns="http://www.w3.org/2000/svg" viewBox="0 0 333334 317627" shape-rendering="geometricPrecision" text-rendering="geometricPrecision" image-rendering="optimizeQuality" fill-rule="evenodd" clip-rule="evenodd"><path d="M99888 292582l-3177-79908 35941-1429c15346 2127 30911 9782 46530 18770l27916-1110c12666 259 19793 12803 7853 21707-9507 7566-22436 7674-35720 7012-9146-86-9058 12202 472 11864 3313 124 6883-793 10022-920 16523-673 30007-4373 37816-17757l3799-9937 40706-22239c20508-7669 34319 11663 19613 27384-29206 23079-57520 44134-88487 59932-22360 14849-45293 15286-68743 2733l-34541-16101zM80671 170817h249298c1841 0 3364 1540 3364 3360v14683c0 1820-1515 3360-3364 3360H80671c-1850 0-3365-1511-3365-3360v-14683c0-1850 1523-3360 3365-3360zM215000 30456c68242 5456 125720 62832 117231 130379l-253823 2C70036 92859 127743 35401 196488 30387V19377l-10843 2c-1904 0-3467-1562-3467-3470V3472c0-1909 1557-3471 3467-3471h39918c1908 0 3467 1563 3467 3471v12437c0 1904-1563 3470-3467 3470h-10564v11078h2zM0 209922l85588-4496 3802 95612-85589 4496L0 209922z"/></svg>