<svg xmlns="http://www.w3.org/2000/svg" width="64" height="64" shape-rendering="geometricPrecision" text-rendering="geometricPrecision" image-rendering="optimizeQuality" fill-rule="evenodd" clip-rule="evenodd" viewBox="0 0 640 640"><path d="M341.756 161.388v378.867h185.565a3.579 3.579 0 0 1 3.567 3.567v40.11a3.579 3.579 0 0 1-3.567 3.568H118.95a3.579 3.579 0 0 1-3.567-3.567v-40.111a3.579 3.579 0 0 1 3.567-3.567h185.565v-378.69c-16.17-5.598-28.985-18.39-34.607-34.548H152.6v17.835a3.581 3.581 0 0 1-3.578 3.567h-30.107a3.579 3.579 0 0 1-3.567-3.567v-17.835H85.512c-2.28 0-4.146-1.606-4.146-3.567V93.344c0-1.973 1.866-3.58 4.146-3.58h184.526c7.736-21.708 28.477-37.263 52.843-37.263 24.366 0 45.107 15.555 52.831 37.264h185.046c2.28 0 4.146 1.606 4.146 3.579v30.106c0 1.961-1.866 3.567-4.146 3.567h-33.65v17.835a3.579 3.579 0 0 1-3.567 3.567h-30.106a3.579 3.579 0 0 1-3.567-3.567v-17.835H375.855c-5.563 15.98-18.166 28.678-34.099 34.37zm177.345 7.287l119.34 210.853a10.986 10.986 0 0 1 1.441 5.717h.106c.012.26.024.52.024.791 0 50.222-59.127 90.958-132.037 90.958-72.107 0-130.726-39.85-132.002-89.328-.2-.85-.319-1.748-.319-2.669 0-2.315.709-4.453 1.913-6.236l122.045-210.57c3.071-5.315 9.863-7.122 15.178-4.052a11.113 11.113 0 0 1 4.31 4.536zm.449 45.851V373.87h90.19l-90.19-159.344zM498.278 373.86V214.763l-92.21 159.096h92.21zM143.447 168.664l119.352 210.853a10.986 10.986 0 0 1 1.44 5.717h.107c0 .26.012.52.012.791 0 50.222-59.127 90.958-132.025 90.958-72.119 0-130.738-39.85-132.002-89.328a11.089 11.089 0 0 1 1.583-8.906l122.045-210.57c3.082-5.314 9.874-7.121 15.177-4.05a11.037 11.037 0 0 1 4.311 4.535zm.449 45.851V373.86h90.202l-90.202-159.344zM122.624 373.86V214.763L30.414 373.86h92.21zM322.882 84.131c13.5 0 24.437 10.938 24.437 24.438 0 13.488-10.937 24.437-24.437 24.437-13.5 0-24.437-10.949-24.437-24.437 0-13.5 10.937-24.438 24.437-24.438z"/></svg>